<svg width="286" height="72" viewBox="0 0 286 72" fill="none" xmlns="http://www.w3.org/2000/svg">
<path d="M5.712 13.192H0.72V10.24H14.304V13.192H9.264V28H5.712V13.192ZM16.656 8.848H20.16V13.672L20.016 16.192C20.56 15.68 21.168 15.224 21.84 14.824C22.528 14.424 23.328 14.224 24.24 14.224C25.696 14.224 26.752 14.704 27.408 15.664C28.064 16.608 28.392 17.928 28.392 19.624V28H24.864V20.056C24.864 19.016 24.712 18.288 24.408 17.872C24.12 17.456 23.64 17.248 22.968 17.248C22.408 17.248 21.928 17.376 21.528 17.632C21.128 17.888 20.672 18.264 20.16 18.76V28H16.656V8.848ZM37.5996 28.336C36.6556 28.336 35.7756 28.176 34.9596 27.856C34.1596 27.536 33.4556 27.08 32.8476 26.488C32.2556 25.88 31.7836 25.144 31.4316 24.28C31.0956 23.4 30.9276 22.408 30.9276 21.304C30.9276 20.216 31.1036 19.24 31.4556 18.376C31.8076 17.496 32.2716 16.752 32.8476 16.144C33.4396 15.52 34.1116 15.048 34.8636 14.728C35.6156 14.392 36.3916 14.224 37.1916 14.224C38.1196 14.224 38.9276 14.384 39.6156 14.704C40.3196 15.024 40.9036 15.472 41.3676 16.048C41.8476 16.624 42.2076 17.304 42.4476 18.088C42.6876 18.872 42.8076 19.728 42.8076 20.656C42.8076 20.976 42.7916 21.288 42.7596 21.592C42.7276 21.88 42.6876 22.104 42.6396 22.264H34.3596C34.5036 23.368 34.9036 24.208 35.5596 24.784C36.2316 25.344 37.0716 25.624 38.0796 25.624C38.6396 25.624 39.1596 25.544 39.6396 25.384C40.1356 25.224 40.6236 24.992 41.1036 24.688L42.3036 26.848C41.6316 27.312 40.8876 27.68 40.0716 27.952C39.2716 28.208 38.4476 28.336 37.5996 28.336ZM39.7836 19.936C39.7836 19.024 39.5756 18.304 39.1596 17.776C38.7436 17.232 38.1036 16.96 37.2396 16.96C36.5356 16.96 35.9036 17.216 35.3436 17.728C34.7836 18.224 34.4396 18.96 34.3116 19.936H39.7836ZM82.1434 10.24H93.0394V13.192H85.6954V17.296H91.9354V20.272H85.6954V25.024H93.3034V28H82.1434V10.24ZM96.381 14.56H99.261L99.501 16.336H99.597C100.189 15.76 100.837 15.264 101.541 14.848C102.245 14.432 103.053 14.224 103.965 14.224C105.421 14.224 106.477 14.704 107.133 15.664C107.789 16.608 108.117 17.928 108.117 19.624V28H104.589V20.056C104.589 19.016 104.437 18.288 104.133 17.872C103.845 17.456 103.365 17.248 102.693 17.248C102.133 17.248 101.653 17.376 101.253 17.632C100.853 17.888 100.397 18.264 99.885 18.76V28H96.381V14.56ZM109.956 14.56H113.508L115.476 21.256C115.652 21.928 115.828 22.608 116.004 23.296C116.196 23.968 116.38 24.648 116.556 25.336H116.676C116.852 24.648 117.028 23.968 117.204 23.296C117.396 22.608 117.58 21.928 117.756 21.256L119.724 14.56H123.108L118.62 28H114.54L109.956 14.56ZM125.104 14.56H128.608V28H125.104V14.56ZM126.88 12.4C126.272 12.4 125.768 12.224 125.368 11.872C124.968 11.504 124.768 11.04 124.768 10.48C124.768 9.904 124.968 9.44 125.368 9.088C125.768 8.736 126.272 8.56 126.88 8.56C127.488 8.56 127.984 8.736 128.368 9.088C128.768 9.44 128.968 9.904 128.968 10.48C128.968 11.04 128.768 11.504 128.368 11.872C127.984 12.224 127.488 12.4 126.88 12.4ZM132.153 14.56H135.033L135.273 16.936H135.369C135.865 16.056 136.449 15.384 137.121 14.92C137.793 14.456 138.481 14.224 139.185 14.224C139.553 14.224 139.857 14.256 140.097 14.32C140.337 14.368 140.561 14.432 140.769 14.512L140.145 17.56C139.921 17.48 139.697 17.424 139.473 17.392C139.265 17.36 139.025 17.344 138.753 17.344C138.225 17.344 137.673 17.544 137.097 17.944C136.521 18.328 136.041 19.008 135.657 19.984V28H132.153V14.56ZM147.982 28.336C147.134 28.336 146.318 28.176 145.534 27.856C144.766 27.536 144.086 27.08 143.494 26.488C142.902 25.88 142.422 25.144 142.054 24.28C141.702 23.4 141.526 22.408 141.526 21.304C141.526 20.184 141.702 19.184 142.054 18.304C142.422 17.424 142.902 16.688 143.494 16.096C144.086 15.488 144.766 15.024 145.534 14.704C146.318 14.384 147.134 14.224 147.982 14.224C148.814 14.224 149.622 14.384 150.406 14.704C151.19 15.024 151.878 15.488 152.47 16.096C153.062 16.688 153.534 17.424 153.886 18.304C154.254 19.184 154.438 20.184 154.438 21.304C154.438 22.408 154.254 23.4 153.886 24.28C153.534 25.144 153.062 25.88 152.47 26.488C151.878 27.08 151.19 27.536 150.406 27.856C149.622 28.176 148.814 28.336 147.982 28.336ZM147.982 25.456C148.894 25.456 149.598 25.08 150.094 24.328C150.59 23.576 150.838 22.568 150.838 21.304C150.838 20.024 150.59 19.008 150.094 18.256C149.598 17.488 148.894 17.104 147.982 17.104C147.07 17.104 146.366 17.488 145.87 18.256C145.374 19.008 145.126 20.024 145.126 21.304C145.126 22.568 145.374 23.576 145.87 24.328C146.366 25.08 147.07 25.456 147.982 25.456ZM157.15 14.56H160.03L160.27 16.336H160.366C160.958 15.76 161.606 15.264 162.31 14.848C163.014 14.432 163.822 14.224 164.734 14.224C166.19 14.224 167.246 14.704 167.902 15.664C168.558 16.608 168.886 17.928 168.886 19.624V28H165.358V20.056C165.358 19.016 165.206 18.288 164.902 17.872C164.614 17.456 164.134 17.248 163.462 17.248C162.902 17.248 162.422 17.376 162.022 17.632C161.622 17.888 161.166 18.264 160.654 18.76V28H157.15V14.56ZM172.285 14.56H175.165L175.405 16.36H175.501C176.061 15.768 176.669 15.264 177.325 14.848C177.981 14.432 178.749 14.224 179.629 14.224C180.589 14.224 181.365 14.432 181.957 14.848C182.549 15.248 183.005 15.824 183.325 16.576C183.933 15.92 184.573 15.368 185.245 14.92C185.933 14.456 186.717 14.224 187.597 14.224C189.037 14.224 190.093 14.704 190.765 15.664C191.437 16.608 191.773 17.928 191.773 19.624V28H188.245V20.056C188.245 19.016 188.093 18.288 187.789 17.872C187.485 17.456 187.013 17.248 186.373 17.248C185.605 17.248 184.741 17.752 183.781 18.76V28H180.253V20.056C180.253 19.016 180.101 18.288 179.797 17.872C179.493 17.456 179.021 17.248 178.381 17.248C177.613 17.248 176.749 17.752 175.789 18.76V28H172.285V14.56ZM201.01 28.336C200.066 28.336 199.186 28.176 198.37 27.856C197.57 27.536 196.866 27.08 196.258 26.488C195.666 25.88 195.194 25.144 194.842 24.28C194.506 23.4 194.338 22.408 194.338 21.304C194.338 20.216 194.514 19.24 194.866 18.376C195.218 17.496 195.682 16.752 196.258 16.144C196.85 15.52 197.522 15.048 198.274 14.728C199.026 14.392 199.802 14.224 200.602 14.224C201.53 14.224 202.338 14.384 203.026 14.704C203.73 15.024 204.314 15.472 204.778 16.048C205.258 16.624 205.618 17.304 205.858 18.088C206.098 18.872 206.218 19.728 206.218 20.656C206.218 20.976 206.202 21.288 206.17 21.592C206.138 21.88 206.098 22.104 206.05 22.264H197.77C197.914 23.368 198.314 24.208 198.97 24.784C199.642 25.344 200.482 25.624 201.49 25.624C202.05 25.624 202.57 25.544 203.05 25.384C203.546 25.224 204.034 24.992 204.514 24.688L205.714 26.848C205.042 27.312 204.298 27.68 203.482 27.952C202.682 28.208 201.858 28.336 201.01 28.336ZM203.194 19.936C203.194 19.024 202.986 18.304 202.57 17.776C202.154 17.232 201.514 16.96 200.65 16.96C199.946 16.96 199.314 17.216 198.754 17.728C198.194 18.224 197.85 18.96 197.722 19.936H203.194ZM208.883 14.56H211.763L212.003 16.336H212.099C212.691 15.76 213.339 15.264 214.043 14.848C214.747 14.432 215.555 14.224 216.467 14.224C217.923 14.224 218.979 14.704 219.635 15.664C220.291 16.608 220.619 17.928 220.619 19.624V28H217.091V20.056C217.091 19.016 216.939 18.288 216.635 17.872C216.347 17.456 215.867 17.248 215.195 17.248C214.635 17.248 214.155 17.376 213.755 17.632C213.355 17.888 212.899 18.264 212.387 18.76V28H208.883V14.56ZM228.938 28.336C228.138 28.336 227.458 28.216 226.898 27.976C226.338 27.736 225.882 27.4 225.53 26.968C225.178 26.52 224.922 25.984 224.762 25.36C224.602 24.736 224.522 24.048 224.522 23.296V17.344H222.626V14.728L224.69 14.56L225.098 10.96H228.05V14.56H231.362V17.344H228.05V23.296C228.05 24.8 228.658 25.552 229.874 25.552C230.098 25.552 230.33 25.528 230.57 25.48C230.81 25.416 231.018 25.344 231.194 25.264L231.77 27.832C231.402 27.96 230.986 28.072 230.522 28.168C230.058 28.28 229.53 28.336 228.938 28.336ZM244.286 33.4H240.806L242.678 28.072L237.47 14.56H241.022L243.158 20.8C243.366 21.408 243.558 22.032 243.734 22.672C243.91 23.296 244.094 23.936 244.286 24.592H244.406C244.566 23.968 244.726 23.336 244.886 22.696C245.046 22.056 245.206 21.424 245.366 20.8L247.214 14.56H250.598L245.942 28.384L244.286 33.4ZM258.211 28.336C257.363 28.336 256.547 28.176 255.763 27.856C254.995 27.536 254.315 27.08 253.723 26.488C253.131 25.88 252.651 25.144 252.283 24.28C251.931 23.4 251.755 22.408 251.755 21.304C251.755 20.184 251.931 19.184 252.283 18.304C252.651 17.424 253.131 16.688 253.723 16.096C254.315 15.488 254.995 15.024 255.763 14.704C256.547 14.384 257.363 14.224 258.211 14.224C259.043 14.224 259.851 14.384 260.635 14.704C261.419 15.024 262.107 15.488 262.699 16.096C263.291 16.688 263.763 17.424 264.115 18.304C264.483 19.184 264.667 20.184 264.667 21.304C264.667 22.408 264.483 23.4 264.115 24.28C263.763 25.144 263.291 25.88 262.699 26.488C262.107 27.08 261.419 27.536 260.635 27.856C259.851 28.176 259.043 28.336 258.211 28.336ZM258.211 25.456C259.123 25.456 259.827 25.08 260.323 24.328C260.819 23.576 261.067 22.568 261.067 21.304C261.067 20.024 260.819 19.008 260.323 18.256C259.827 17.488 259.123 17.104 258.211 17.104C257.299 17.104 256.595 17.488 256.099 18.256C255.603 19.008 255.355 20.024 255.355 21.304C255.355 22.568 255.603 23.576 256.099 24.328C256.595 25.08 257.299 25.456 258.211 25.456ZM271.362 28.336C269.922 28.336 268.874 27.864 268.218 26.92C267.562 25.96 267.234 24.64 267.234 22.96V14.56H270.762V22.504C270.762 23.56 270.906 24.296 271.194 24.712C271.498 25.112 271.978 25.312 272.634 25.312C273.194 25.312 273.674 25.184 274.074 24.928C274.474 24.672 274.906 24.24 275.37 23.632V14.56H278.898V28H276.018L275.754 26.08H275.658C275.082 26.768 274.45 27.32 273.762 27.736C273.09 28.136 272.29 28.336 271.362 28.336ZM0.648 50.56H4.176L5.64 57.208C5.768 57.864 5.88 58.512 5.976 59.152C6.072 59.792 6.184 60.448 6.312 61.12H6.408C6.536 60.448 6.664 59.792 6.792 59.152C6.92 58.496 7.072 57.848 7.248 57.208L8.856 50.56H12L13.68 57.208C13.84 57.864 13.984 58.512 14.112 59.152C14.24 59.792 14.376 60.448 14.52 61.12H14.64C14.768 60.448 14.88 59.792 14.976 59.152C15.072 58.512 15.184 57.864 15.312 57.208L16.776 50.56H20.04L16.728 64H12.576L11.16 58.144C11.016 57.504 10.88 56.872 10.752 56.248C10.64 55.624 10.52 54.952 10.392 54.232H10.272C10.144 54.952 10.024 55.632 9.912 56.272C9.8 56.896 9.672 57.52 9.528 58.144L8.16 64H4.128L0.648 50.56ZM27.9908 64.336C27.1428 64.336 26.3268 64.176 25.5428 63.856C24.7748 63.536 24.0948 63.08 23.5028 62.488C22.9108 61.88 22.4308 61.144 22.0628 60.28C21.7108 59.4 21.5348 58.408 21.5348 57.304C21.5348 56.184 21.7108 55.184 22.0628 54.304C22.4308 53.424 22.9108 52.688 23.5028 52.096C24.0948 51.488 24.7748 51.024 25.5428 50.704C26.3268 50.384 27.1428 50.224 27.9908 50.224C28.8228 50.224 29.6308 50.384 30.4148 50.704C31.1988 51.024 31.8868 51.488 32.4788 52.096C33.0708 52.688 33.5428 53.424 33.8948 54.304C34.2628 55.184 34.4468 56.184 34.4468 57.304C34.4468 58.408 34.2628 59.4 33.8948 60.28C33.5428 61.144 33.0708 61.88 32.4788 62.488C31.8868 63.08 31.1988 63.536 30.4148 63.856C29.6308 64.176 28.8228 64.336 27.9908 64.336ZM27.9908 61.456C28.9028 61.456 29.6068 61.08 30.1028 60.328C30.5988 59.576 30.8468 58.568 30.8468 57.304C30.8468 56.024 30.5988 55.008 30.1028 54.256C29.6068 53.488 28.9028 53.104 27.9908 53.104C27.0788 53.104 26.3748 53.488 25.8788 54.256C25.3828 55.008 25.1348 56.024 25.1348 57.304C25.1348 58.568 25.3828 59.576 25.8788 60.328C26.3748 61.08 27.0788 61.456 27.9908 61.456ZM41.1422 64.336C39.7022 64.336 38.6542 63.864 37.9982 62.92C37.3422 61.96 37.0142 60.64 37.0142 58.96V50.56H40.5422V58.504C40.5422 59.56 40.6862 60.296 40.9742 60.712C41.2782 61.112 41.7582 61.312 42.4142 61.312C42.9742 61.312 43.4542 61.184 43.8542 60.928C44.2542 60.672 44.6862 60.24 45.1502 59.632V50.56H48.6782V64H45.7982L45.5342 62.08H45.4382C44.8622 62.768 44.2302 63.32 43.5422 63.736C42.8702 64.136 42.0702 64.336 41.1422 64.336ZM52.1994 64V44.848H55.7034V64H52.1994ZM64.2578 64.336C63.4258 64.336 62.6658 64.176 61.9778 63.856C61.3058 63.536 60.7298 63.072 60.2498 62.464C59.7698 61.856 59.4018 61.12 59.1458 60.256C58.8898 59.392 58.7618 58.408 58.7618 57.304C58.7618 56.2 58.9138 55.216 59.2178 54.352C59.5378 53.472 59.9618 52.728 60.4898 52.12C61.0178 51.512 61.6178 51.048 62.2898 50.728C62.9778 50.392 63.6818 50.224 64.4018 50.224C65.1698 50.224 65.8098 50.36 66.3218 50.632C66.8338 50.888 67.3298 51.24 67.8098 51.688L67.6658 49.576V44.848H71.1938V64H68.3378L68.0498 62.608H67.9778C67.4818 63.088 66.9138 63.496 66.2738 63.832C65.6338 64.168 64.9618 64.336 64.2578 64.336ZM65.1698 61.432C65.6338 61.432 66.0658 61.328 66.4658 61.12C66.8818 60.912 67.2818 60.552 67.6658 60.04V54.136C67.2498 53.768 66.8338 53.512 66.4178 53.368C66.0018 53.208 65.5858 53.128 65.1698 53.128C64.7858 53.128 64.4258 53.216 64.0898 53.392C63.7538 53.568 63.4578 53.832 63.2018 54.184C62.9618 54.536 62.7618 54.968 62.6018 55.48C62.4578 55.992 62.3858 56.584 62.3858 57.256C62.3858 58.664 62.6258 59.712 63.1058 60.4C63.5858 61.088 64.2738 61.432 65.1698 61.432ZM79.9326 50.56H83.4366V64H79.9326V50.56ZM81.7086 48.4C81.1006 48.4 80.5966 48.224 80.1966 47.872C79.7966 47.504 79.5966 47.04 79.5966 46.48C79.5966 45.904 79.7966 45.44 80.1966 45.088C80.5966 44.736 81.1006 44.56 81.7086 44.56C82.3166 44.56 82.8126 44.736 83.1966 45.088C83.5966 45.44 83.7966 45.904 83.7966 46.48C83.7966 47.04 83.5966 47.504 83.1966 47.872C82.8126 48.224 82.3166 48.4 81.7086 48.4ZM86.9816 50.56H89.8616L90.1016 52.36H90.1976C90.7576 51.768 91.3656 51.264 92.0216 50.848C92.6776 50.432 93.4456 50.224 94.3256 50.224C95.2856 50.224 96.0616 50.432 96.6536 50.848C97.2456 51.248 97.7016 51.824 98.0216 52.576C98.6296 51.92 99.2696 51.368 99.9416 50.92C100.63 50.456 101.414 50.224 102.294 50.224C103.734 50.224 104.79 50.704 105.462 51.664C106.134 52.608 106.47 53.928 106.47 55.624V64H102.942V56.056C102.942 55.016 102.79 54.288 102.486 53.872C102.182 53.456 101.71 53.248 101.07 53.248C100.302 53.248 99.4376 53.752 98.4776 54.76V64H94.9496V56.056C94.9496 55.016 94.7976 54.288 94.4936 53.872C94.1896 53.456 93.7176 53.248 93.0776 53.248C92.3096 53.248 91.4456 53.752 90.4856 54.76V64H86.9816V50.56ZM113.186 64.24C112.578 64.24 112.026 64.152 111.53 63.976C111.05 63.784 110.634 63.52 110.282 63.184C109.946 62.832 109.682 62.416 109.49 61.936C109.298 61.456 109.202 60.928 109.202 60.352C109.122 58.704 109.69 57.488 110.906 56.704C112.138 55.904 114.146 55.464 116.93 55.384C116.994 54.68 116.882 54.12 116.594 53.704C116.322 53.272 115.674 53.056 114.65 53.056C114.026 53.056 113.37 53.168 112.682 53.392C112.01 53.616 111.37 53.928 110.762 54.328L109.706 51.808C110.442 51.36 111.29 50.984 112.25 50.68C113.226 50.376 114.242 50.224 115.298 50.224C117.01 50.224 118.298 50.728 119.162 51.736C120.026 52.728 120.458 54.2 120.458 56.152V64H117.578L117.314 62.632H117.242C116.666 63.128 116.034 63.52 115.346 63.808C114.674 64.096 113.954 64.24 113.186 64.24ZM114.266 61.552C114.778 61.536 115.242 61.424 115.658 61.216C116.09 60.992 116.514 60.672 116.93 60.256V57.544C116.082 57.608 115.274 57.696 114.506 57.808C113.738 57.92 113.194 58.152 112.874 58.504C112.57 58.856 112.426 59.272 112.442 59.752C112.458 60.312 112.634 60.752 112.97 61.072C113.322 61.392 113.754 61.552 114.266 61.552ZM128.542 69.832C127.742 69.832 126.998 69.76 126.31 69.616C125.638 69.488 125.046 69.28 124.534 68.992C124.038 68.704 123.646 68.344 123.358 67.912C123.07 67.48 122.926 66.968 122.926 66.376C122.926 65.816 123.094 65.296 123.43 64.816C123.766 64.352 124.238 63.944 124.846 63.592V63.472C124.494 63.248 124.198 62.96 123.958 62.608C123.734 62.24 123.622 61.776 123.622 61.216C123.622 60.704 123.766 60.232 124.054 59.8C124.358 59.352 124.71 58.984 125.11 58.696V58.6C124.646 58.264 124.23 57.792 123.862 57.184C123.51 56.576 123.334 55.88 123.334 55.096C123.334 54.312 123.478 53.616 123.766 53.008C124.07 52.4 124.47 51.888 124.966 51.472C125.478 51.056 126.054 50.744 126.694 50.536C127.35 50.328 128.038 50.224 128.758 50.224C129.126 50.224 129.486 50.256 129.838 50.32C130.19 50.384 130.502 50.464 130.774 50.56H135.622V53.152H133.318C133.494 53.376 133.638 53.672 133.75 54.04C133.878 54.392 133.942 54.776 133.942 55.192C133.942 55.944 133.806 56.608 133.534 57.184C133.262 57.744 132.894 58.216 132.43 58.6C131.966 58.984 131.414 59.272 130.774 59.464C130.15 59.656 129.478 59.752 128.758 59.752C128.486 59.752 128.198 59.728 127.894 59.68C127.606 59.616 127.318 59.536 127.03 59.44C126.838 59.6 126.694 59.768 126.598 59.944C126.502 60.104 126.454 60.32 126.454 60.592C126.454 60.96 126.606 61.24 126.91 61.432C127.214 61.608 127.766 61.696 128.566 61.696H130.846C132.478 61.696 133.718 61.96 134.566 62.488C135.414 63.016 135.838 63.872 135.838 65.056C135.838 65.728 135.67 66.352 135.334 66.928C134.998 67.52 134.51 68.032 133.87 68.464C133.246 68.896 132.478 69.232 131.566 69.472C130.67 69.712 129.662 69.832 128.542 69.832ZM128.758 57.568C129.35 57.568 129.846 57.36 130.246 56.944C130.646 56.512 130.846 55.896 130.846 55.096C130.846 54.296 130.646 53.688 130.246 53.272C129.862 52.84 129.366 52.624 128.758 52.624C128.15 52.624 127.646 52.84 127.246 53.272C126.846 53.688 126.646 54.296 126.646 55.096C126.646 55.896 126.846 56.512 127.246 56.944C127.662 57.36 128.166 57.568 128.758 57.568ZM129.07 67.6C130.078 67.6 130.894 67.408 131.518 67.024C132.158 66.64 132.478 66.184 132.478 65.656C132.478 65.176 132.286 64.856 131.902 64.696C131.518 64.536 130.966 64.456 130.246 64.456H128.614C128.198 64.456 127.838 64.44 127.534 64.408C127.246 64.376 126.982 64.328 126.742 64.264C126.15 64.744 125.854 65.264 125.854 65.824C125.854 66.384 126.142 66.816 126.718 67.12C127.294 67.44 128.078 67.6 129.07 67.6ZM137.894 50.56H141.398V64H137.894V50.56ZM139.67 48.4C139.062 48.4 138.558 48.224 138.158 47.872C137.758 47.504 137.558 47.04 137.558 46.48C137.558 45.904 137.758 45.44 138.158 45.088C138.558 44.736 139.062 44.56 139.67 44.56C140.278 44.56 140.774 44.736 141.158 45.088C141.558 45.44 141.758 45.904 141.758 46.48C141.758 47.04 141.558 47.504 141.158 47.872C140.774 48.224 140.278 48.4 139.67 48.4ZM144.944 50.56H147.824L148.064 52.336H148.16C148.752 51.76 149.4 51.264 150.104 50.848C150.808 50.432 151.616 50.224 152.528 50.224C153.984 50.224 155.04 50.704 155.696 51.664C156.352 52.608 156.68 53.928 156.68 55.624V64H153.152V56.056C153.152 55.016 153 54.288 152.696 53.872C152.408 53.456 151.928 53.248 151.256 53.248C150.696 53.248 150.216 53.376 149.816 53.632C149.416 53.888 148.96 54.264 148.448 54.76V64H144.944V50.56ZM165.91 64.336C164.966 64.336 164.086 64.176 163.27 63.856C162.47 63.536 161.766 63.08 161.158 62.488C160.566 61.88 160.094 61.144 159.742 60.28C159.406 59.4 159.238 58.408 159.238 57.304C159.238 56.216 159.414 55.24 159.766 54.376C160.118 53.496 160.582 52.752 161.158 52.144C161.75 51.52 162.422 51.048 163.174 50.728C163.926 50.392 164.702 50.224 165.502 50.224C166.43 50.224 167.238 50.384 167.926 50.704C168.63 51.024 169.214 51.472 169.678 52.048C170.158 52.624 170.518 53.304 170.758 54.088C170.998 54.872 171.118 55.728 171.118 56.656C171.118 56.976 171.102 57.288 171.07 57.592C171.038 57.88 170.998 58.104 170.95 58.264H162.67C162.814 59.368 163.214 60.208 163.87 60.784C164.542 61.344 165.382 61.624 166.39 61.624C166.95 61.624 167.47 61.544 167.95 61.384C168.446 61.224 168.934 60.992 169.414 60.688L170.614 62.848C169.942 63.312 169.198 63.68 168.382 63.952C167.582 64.208 166.758 64.336 165.91 64.336ZM168.094 55.936C168.094 55.024 167.886 54.304 167.47 53.776C167.054 53.232 166.414 52.96 165.55 52.96C164.846 52.96 164.214 53.216 163.654 53.728C163.094 54.224 162.75 54.96 162.622 55.936H168.094Z" fill="white"/>
<path d="M59.677 17.1191V12.7974L60.9144 11.795V1.67383H59.1416L52.9998 6.8792L53.6185 8.00294C54.9011 7.86185 57.2688 7.24058 57.9946 6.96088V25.6933L53.6185 26.9729V29.0001H60.9144V18.1216L59.6794 17.1216L59.677 17.1191Z" fill="white"/>
<path d="M68.6958 26.9707L64.3577 25.7059V1.67407H61.5736V12.0601L60.3362 13.06V16.8545L61.5736 17.8545V28.9979H68.6958V26.9707Z" fill="white"/>
<path d="M72.0944 4.19648C72.056 3.72574 71.7486 3.45674 71.1241 3.45674C70.5189 3.45674 70.2499 3.68731 70.2403 4.01395C70.2307 4.36941 70.5573 4.57115 71.201 4.70565L71.7774 4.84015C73.2761 5.15718 73.939 5.88732 73.9486 6.9537C73.939 8.3179 72.8918 9.08646 71.1337 9.08646C69.3372 9.08646 68.1748 8.29869 68.1556 6.58863H69.904C69.9329 7.2323 70.3844 7.57816 71.1049 7.57816C71.7294 7.57816 72.0656 7.31877 72.0752 6.9537C72.0656 6.61745 71.787 6.42531 71.0088 6.25239L70.3075 6.09867C69.0874 5.82968 68.3381 5.22443 68.3381 4.14845C68.3285 2.83228 69.4909 1.94843 71.1241 1.94843C72.7958 1.94843 73.8429 2.84189 73.8525 4.19648H72.0944ZM74.2011 3.52399V2.0445H80.1959V3.52399H78.1015V9H76.2954V3.52399H74.2011Z" fill="white"/>
</svg>
